# xmcd
#
# Track frame offsets:
#	182
#	8675
#	18557
#	30555
#	42207
#	52982
#	68220
#	80887
#	92085
#	107765
#	121712
#	136010
#	147152
#	156452
#	168720
#	181900
#	195252
#	205645
#	221617
#	233180
#	246105
#	257395
#
# Disc length: 3660
#
# Revision: 3
# Processed by: cddbd v1.5.1PL0 Copyright (c) Steve Scherf et al.
# Submitted via: EasyCDDAExtractor 6.5.0.1
# Normalized: r2:DSETVAR1
#
DISCID=230e4a16
DTITLE=Various Artist - Country Fare
DYEAR=1900
DGENRE=Country
TTITLE0=Billie Jo Spears - Rocky Top
TTITLE1=Conway Twitty - Midnight
TTITLE2=Dolly Parton - Letter To Heaven
TTITLE3=Pozo Seco Singers - On Her Way To Be a Woman
TTITLE4=Kelvin Henderson - Mona
TTITLE5=Anne Murray - Both Sides Now
TTITLE6=Frankie Laine - High Noon
TTITLE7=Billie Jo Spears - Tennessee Waltz
TTITLE8=Kelvin Henderson - Son Of Hickory Hollers Tramp
TTITLE9=Anne Murray - What About Me
TTITLE10=Billie Jo Spears - Crying Time
TTITLE11=Dolly Parton - Honky Tonk Angels
TTITLE12=Pozo Seco Singers - In My Life
TTITLE13=Anne Murray - All The Time
TTITLE14=Frankie Laine - The Cry Of The Wild Goose
TTITLE15=Donna Fargo - Daddy
TTITLE16=Kelvin Henderson - We Had It All
TTITLE17=Billie Jo Spears - Queen Of The Silver Dollar
TTITLE18=Conway Twitty - I'm Not Through Loving You Yet
TTITLE19=Dolly Parton - Little Blossom
TTITLE20=Kelvin Henderson - In The Shelter Of Your Eyes
TTITLE21=Billie Jo Spears - For The Good Times
EXTD=
EXTT0=
EXTT1=
EXTT2=
EXTT3=
EXTT4=
EXTT5=
EXTT6=
EXTT7=
EXTT8=
EXTT9=
EXTT10=
EXTT11=
EXTT12=
EXTT13=
EXTT14=
EXTT15=
EXTT16=
EXTT17=
EXTT18=
EXTT19=
EXTT20=
EXTT21=
PLAYORDER=
